<svg xmlns="http://www.w3.org/2000/svg" xmlns:xlink="http://www.w3.org/1999/xlink" xml:space="preserve" style="shape-rendering:geometricPrecision;text-rendering:geometricPrecision;image-rendering:optimizeQuality;" viewBox="0 0 6.82666 8.533325000000001" x="0px" y="0px" fill-rule="evenodd" clip-rule="evenodd"><defs><style type="text/css">
   
    .fil0 {fill:black}
   
  </style></defs><g><g><path class="fil0" d="M1.3393 4.16646l-0.89637 0c-0.036811,0 -0.066685,-0.0298583 -0.066685,-0.0666654l6.29921e-005 -1.57167c0,-0.0368031 0.0297953,-0.0666654 0.0666063,-0.0666654l2.07714 0c0.036937,0 0.0666063,0.0298622 0.0666063,0.0666693l1.5748e-005 1.19402c0,0.0369449 -0.0297323,0.0666693 -0.0666693,0.0666693 -0.0367717,0 -0.0666772,-0.0297244 -0.0666772,-0.0666654l3.14961e-005 -1.12736 -1.94375 0 0 1.43833 0.829685 0c0.0368189,0 0.0666772,0.0298661 0.0666772,0.0666693 1.5748e-005,0.0368071 -0.029874,0.0666654 -0.0666772,0.0666654z"/><path class="fil0" d="M2.52018 2.59479c-0.021811,0 -0.0432362,-0.0106929 -0.0560157,-0.0302795l-0.640677 -0.987362 -0.684 0 -0.640685 0.987362c-0.02,0.0308346 -0.0612992,0.0397244 -0.0921339,0.0195866 -0.0309291,-0.0200039 -0.0397244,-0.061252 -0.0197244,-0.0922244l0.660417 -1.01764c0.012252,-0.0190276 0.0333307,-0.0304134 0.0558268,-0.0304134l0.756551 0c0.0226299,0 0.0435906,0.0113898 0.0559528,0.0304173l0.660299 1.01764c0.02,0.0309724 0.0112283,0.0722205 -0.0196063,0.0922244 -0.0112126,0.00722047 -0.0238898,0.0106929 -0.0362047,0.0106929z"/><path class="fil0" d="M1.10324 1.57715c-0.0368031,0 -0.0667087,-0.0298583 -0.0667087,-0.0666614l3.14961e-005 -0.487087c0,-0.0368031 0.0298268,-0.0666654 0.0666299,-0.0666654 0.0368661,-3.93701e-006 0.0666772,0.0298622 0.0666772,0.0666654l0 0.487083c0,0.0368031 -0.0298661,0.0666693 -0.0666299,0.0666654zm0.756504 0c-0.036811,0 -0.066685,-0.0298583 -0.066685,-0.0666614l0 -0.487087c0,-0.0368031 0.0298661,-0.0666654 0.0666693,-0.0666654 0.0368346,-3.93701e-006 0.0666614,0.0298622 0.0666614,0.0666654l4.72441e-005 0.487083c0,0.0368031 -0.0299055,0.0666693 -0.0666929,0.0666654z"/><path class="fil0" d="M1.04768 0.956732l0.867748 0 0 -0.276661 -0.867748 0 0 0.276661zm0.889874 0.133339l-0.912126 0c-0.0612441,0 -0.111118,-0.0498622 -0.111118,-0.111114l0 -0.321114c0,-0.0612441 0.0498583,-0.111106 0.111102,-0.111106l0.912142 -3.93701e-006c0.061252,0 0.111063,0.0498661 0.111063,0.111114l0 0.32111c0,0.061248 -0.0498661,0.111114 -0.111063,0.111114z"/><path class="fil0" d="M1.48155 6.23104c-0.144315,0 -0.275717,-0.0731929 -0.351693,-0.191524 -0.0760551,0.118331 -0.207504,0.191524 -0.351661,0.191524 -0.230646,0 -0.418339,-0.187638 -0.418339,-0.418331 7.87402e-006,-0.0026378 0.000141732,-0.00514173 0.000417323,-0.0076378 0.0060315,-0.0523622 0.0131969,-0.107224 0.0206929,-0.165417 0.0290866,-0.224587 0.0620945,-0.479028 0.0608346,-0.78 -0.000811024,-0.202917 -0.0374961,-0.526252 -0.0651417,-0.751665 -0.00441732,-0.0366693 0.0216772,-0.0698622 0.0581969,-0.0743071 0.0366929,-0.00458268 0.0697244,0.0215276 0.0741732,0.0580551 0.0279606,0.22889 0.0652756,0.5575 0.0661102,0.767362 0.00129134,0.30972 -0.033748,0.580413 -0.0619528,0.79778 -0.00732283,0.0561102 -0.0141575,0.109161 -0.02,0.159441 0.00198425,0.155417 0.129039,0.28139 0.285008,0.28139 0.115606,0 0.218882,-0.0690276 0.263197,-0.175697 0.0149134,-0.0356929 0.0495827,-0.0588898 0.0883307,-0.0588898 1.5748e-005,0 0,0 0.000133858,0 0.0387559,0 0.0734724,0.0231969 0.0883386,0.0588898 0.0444803,0.106669 0.147772,0.175697 0.263339,0.175697 0.0669606,0 0.131937,-0.023748 0.183189,-0.0666654 0.0282047,-0.023752 0.0702756,-0.0201378 0.0938819,0.00805512 0.0237638,0.0281929 0.02,0.0702756 -0.00818898,0.0940276 -0.0751181,0.0630551 -0.170693,0.0979134 -0.268866,0.0979134z"/><path class="fil0" d="M3.40056 3.94659c-0.0348189,0 -0.0641732,-0.0270827 -0.0663937,-0.0623583 -0.00817323,-0.12778 -0.00291339,-0.239862 0.0159685,-0.333055 0.0243622,-0.120972 0.0723622,-0.216945 0.142504,-0.285142 0.0264173,-0.0256929 0.0686142,-0.0251339 0.0943071,0.00125197 0.0257323,0.0263858 0.0251417,0.0686102 -0.0013937,0.0943071 -0.0504961,0.0491654 -0.0856929,0.121807 -0.104717,0.215835 -0.0165276,0.0818031 -0.0211181,0.182079 -0.0136142,0.298193 0.0023937,0.0366654 -0.0255512,0.0684724 -0.0622205,0.0708307 -0.00151181,0 -0.00291339,0.000137795 -0.00444094,0.000137795z"/><path class="fil0" d="M2.7778 4.87174l0.000125984 0 -0.000125984 0zm0.610567 -0.925417c-0.149008,0 -0.271843,0.118193 -0.312677,0.301252 -0.0562047,0.251386 -0.136803,0.472362 -0.239717,0.656665 -0.25748,0.46139 -0.248898,0.840555 0.0242992,1.0675 0.281402,0.233752 0.774866,0.233752 1.05625,0 0.273213,-0.226945 0.281811,-0.60611 0.0243071,-1.0675 -0.102906,-0.184303 -0.183614,-0.40528 -0.239724,-0.656665 -0.0408031,-0.183059 -0.163606,-0.301252 -0.31274,-0.301252zm0 2.33361c-0.235811,0 -0.453646,-0.0729173 -0.613228,-0.205693 -0.153024,-0.127083 -0.464724,-0.501945 -0.0557008,-1.235 0.0966772,-0.173055 0.172787,-0.381945 0.22611,-0.620693 0.0550079,-0.246394 0.228898,-0.405555 0.442787,-0.405555 0.214031,-3.93701e-006 0.387906,0.159165 0.442913,0.405555 0.0533622,0.238748 0.129441,0.447638 0.225969,0.620693 0.409213,0.733055 0.0974961,1.10792 -0.0555591,1.235 -0.159543,0.132776 -0.377354,0.205693 -0.613291,0.205693z"/><path class="fil0" d="M4.0488 3.05465l-0.128496 0.382087c-0.00137795,0.00430709 -0.00127559,0.00666535 0.00080315,0.0106929 0.00212598,0.00402756 0.0040315,0.00555512 0.00833071,0.00666929 0.794362,0.22222 1.59959,0.22222 2.39389,0 0.00434646,-0.00111417 0.00611024,-0.0026378 0.00833858,-0.00666929 0.00213386,-0.00402756 0.00222047,-0.00638583 0.00084252,-0.0106929l-0.128457 -0.382087c-0.715441,0.201807 -1.43989,0.201807 -2.15525,0zm2.418 0.390331l0 -0.00708661c-0.000366142,-0.0145354 -0.00297638,-0.0291654 -0.00787402,-0.0436614l-0.148929 -0.442634c-0.0115197,-0.0340276 -0.0478819,-0.0529213 -0.0822205,-0.0426417 -0.730835,0.218197 -1.47191,0.218193 -2.20278,0 -0.0344409,-0.0102756 -0.0708189,0.00861417 -0.0821969,0.0426417l-0.148913 0.442638c-0.0131969,0.0390276 -0.00983465,0.0790276 0.00944094,0.115555 0.0193071,0.0365315 0.0504724,0.0616654 0.0902835,0.0727795 0.409024,0.114441 0.820882,0.171665 1.23282,0.171665 0.411906,0 0.823748,-0.0572244 1.23274,-0.171665 0.0397165,-0.0111142 0.0710079,-0.036252 0.0902677,-0.0727795 0.0109764,-0.020752 0.0167953,-0.0426299 0.0173622,-0.064811z"/><path class="fil0" d="M3.95812 4.86063c-0.036,0 -0.065622,-0.0286142 -0.0667244,-0.0647205 -0.0113386,-0.398752 0.0115276,-0.821114 0.0683228,-1.2557 0.00477953,-0.0365276 0.0381969,-0.0622244 0.0747323,-0.0575 0.0365433,0.00472047 0.0622205,0.0381929 0.0574961,0.0747205 -0.0558268,0.427638 -0.0784724,0.842921 -0.0672205,1.23459 0.00114173,0.0368031 -0.0279213,0.0674961 -0.0647244,0.0686102 -0.000700787,0 -0.00125197,0 -0.00188189,0zm2.31219 1.37041c-0.00193701,0 -0.00392126,0 -0.00585827,-0.000137795 -0.185276,-0.00694488 -0.318063,-0.0730551 -0.394732,-0.196665 -0.00291339,-0.00472441 -0.00596063,-0.00652756 -0.0115197,-0.00652756l-1.46358 0c-0.00555906,0 -0.00877953,0.00180315 -0.0116929,0.00652756 -0.0764882,0.12361 -0.209307,0.18972 -0.394583,0.196665 -0.0416614,0.00152756 -0.0795906,-0.0133346 -0.109315,-0.0429134 -0.0295354,-0.0295866 -0.0444409,-0.0675039 -0.0429213,-0.109307 0.000330709,-0.00625197 0.000559055,-0.0123622 0.00084252,-0.0183307 0.00222835,-0.0366693 0.033748,-0.0645866 0.0704173,-0.0626417 0.0368189,0.00222047 0.0648661,0.033752 0.0627717,0.0705551 -0.000393701,0.005 -0.000551181,0.0101378 -0.000834646,0.0154173 -0.000125984,0.00444488 0.000700787,0.00680709 0.0040315,0.01 0.00322835,0.00333465 0.00555906,0.00416535 0.0101417,0.00402756 0.140016,-0.00527953 0.233606,-0.0490276 0.28611,-0.133752 0.0275276,-0.0441654 0.0729134,-0.0694449 0.125,-0.0694449l1.46366 0c0.052063,0 0.0974488,0.0252795 0.124945,0.0694449 0.0523622,0.0847244 0.145984,0.128472 0.28611,0.133752 0.00462992,0.000137795 0.0068189,-0.000834646 0.0101417,-0.00402756 0.00323622,-0.00319291 0.00417323,-0.00555512 0.0040315,-0.0101378 -0.00441732,-0.118614 -0.0379213,-0.206252 -0.0993071,-0.260697 -0.0389921,-0.0344449 -0.0565276,-0.0855551 -0.0472205,-0.136528 0.11711,-0.63722 0.125142,-1.35333 0.0238898,-2.12889 -0.00471654,-0.0365276 0.0209685,-0.0699961 0.0575039,-0.0747205 0.0365276,-0.00472441 0.07,0.0209724 0.0747165,0.0575 0.103063,0.789165 0.0945827,1.51931 -0.025,2.17014 -0.000944882,0.00555906 0.000283465,0.00888976 0.00444094,0.0126417 0.089874,0.0794449 0.138339,0.199165 0.144173,0.355551 0.0015748,0.0419449 -0.0133386,0.0797244 -0.0429213,0.109449 -0.0283228,0.0281929 -0.0638898,0.0430512 -0.103441,0.0430512z"/><path class="fil0" d="M5.92237 3.12243c-0.0245669,0 -0.048063,-0.0136063 -0.0597323,-0.0370827 -0.00370866,-0.0076378 -0.00833071,-0.015 -0.0134803,-0.0219409l-0.615102 -0.829445c-0.0266929,-0.0359764 -0.0629449,-0.0541693 -0.107669,-0.0541693 -0.0447087,-3.93701e-006 -0.0809764,0.0181969 -0.107638,0.0541693l-0.615134 0.829441c-0.00511811,0.00708661 -0.00972441,0.0144488 -0.0134803,0.0219449 -0.0163307,0.0330551 -0.0563858,0.0463898 -0.0892992,0.03 -0.0330315,-0.0163898 -0.0465276,-0.0563898 -0.0301417,-0.0893071 0.0073622,-0.0145827 0.0159685,-0.028748 0.0258346,-0.0420787l0.61515 -0.829449c0.051685,-0.0697205 0.127906,-0.108051 0.214709,-0.108051 0.0868504,0 0.163055,0.0383346 0.214724,0.108051l0.615197 0.829449c0.00981102,0.0133307 0.0184173,0.0273583 0.0256378,0.0420787 0.0164252,0.0329173 0.00305512,0.0729173 -0.03,0.0893071 -0.00938583,0.00485827 -0.0195748,0.00708661 -0.0295748,0.00708268z"/><path class="fil0" d="M4.00599 3.03952c-0.00968504,0 -0.0194646,-0.00208661 -0.0286299,-0.0063937 -0.0333071,-0.0158307 -0.0475039,-0.0555551 -0.0316693,-0.0888858 0.147795,-0.310972 0.505559,-0.473752 0.752504,-0.446248 0.0365433,0.00416142 0.0629134,0.0370827 0.0588819,0.0736063 -0.00414961,0.0366693 -0.0372205,0.0630591 -0.073748,0.0588898 -0.175528,-0.0195827 -0.487638,0.0984724 -0.617228,0.370976 -0.0113622,0.0240276 -0.0352677,0.0380551 -0.0601102,0.0380551zm2.24081 0c-0.024811,0 -0.048748,-0.0140276 -0.0602756,-0.0380551 -0.129417,-0.272504 -0.441386,-0.390417 -0.617228,-0.370976 -0.036189,0.00430709 -0.0694409,-0.0222205 -0.0736063,-0.0588898 -0.00401575,-0.0365236 0.0223622,-0.0694409 0.0588898,-0.0736063 0.247094,-0.0276417 0.604717,0.135276 0.752362,0.446248 0.0158583,0.0333307 0.00166142,0.0730551 -0.0315354,0.0888858 -0.00929134,0.00430709 -0.0190236,0.0063937 -0.0286063,0.0063937z"/><path class="fil0" d="M2.06361 4.57563c-0.036811,0 -0.0666693,-0.0298622 -0.0666693,-0.0666693l4.72441e-005 -0.0656929c0,-0.0368071 0.029811,-0.0666693 0.0666142,-0.0666693 0.0368268,0 0.0666693,0.0298661 0.0666693,0.0666693l3.14961e-005 0.0656929c0,0.0368071 -0.0298898,0.0666693 -0.0666929,0.0666693z"/><path class="fil0" d="M2.39599 4.57563c-0.0368189,0 -0.0666772,-0.0298622 -0.0666772,-0.0666693l4.72441e-005 -0.0656929c0,-0.0368071 0.029811,-0.0666693 0.0666142,-0.0666693 0.0368268,0 0.0666614,0.0298661 0.0666614,0.0666693l3.93701e-005 0.0656929c0,0.0368071 -0.0298976,0.0666693 -0.066685,0.0666693z"/><path class="fil0" d="M1.7313 4.57563c-0.0368031,0 -0.0667165,-0.0298622 -0.0667165,-0.0666693l3.14961e-005 -0.0656929c0,-0.0368071 0.0298346,-0.0666693 0.0666378,-0.0666693 0.0368031,0 0.0666614,0.0298661 0.0666614,0.0666693l1.5748e-005 0.0656929c0,0.0368071 -0.029874,0.0666693 -0.0666299,0.0666693z"/><path class="fil0" d="M1.46349 5.27243c-0.0369291,0 -0.066685,-0.0297205 -0.066685,-0.0666654l0 -0.0655551c0,-0.0368071 0.0297244,-0.0666654 0.0666693,-0.0666654 0.0368346,0 0.0666614,0.0298583 0.0666614,0.0666654l4.72441e-005 0.0655551c0,0.0369449 -0.0299055,0.0666654 -0.0666929,0.0666654z"/><path class="fil0" d="M1.86906 5.27243c-0.036811,0 -0.0667008,-0.0297205 -0.0667008,-0.0666654l1.5748e-005 -0.0655551c0,-0.0368071 0.0298583,-0.0666654 0.0666614,-0.0666654 0.0368346,0 0.0666614,0.0298583 0.0666614,0.0666654l4.72441e-005 0.0655551c0,0.0369449 -0.0299055,0.0666654 -0.066685,0.0666654z"/><path class="fil0" d="M2.25824 5.27243c-0.0368189,0 -0.0667244,-0.0297205 -0.0667244,-0.0666654l3.14961e-005 -0.0655551c0,-0.0368071 0.0298425,-0.0666654 0.0666457,-0.0666654 0.0368583,0 0.0666614,0.0298583 0.0666614,0.0666654l7.87402e-006 0.0655551c0,0.0369449 -0.0298661,0.0666654 -0.066622,0.0666654z"/><path class="fil0" d="M1.63612 5.6209c-0.0367559,0 -0.0666772,-0.0298583 -0.0666772,-0.0666654l4.72441e-005 -0.0655551c0,-0.0368071 0.0298268,-0.0666693 0.0666142,-0.0666693 0.0368268,0 0.0666693,0.0298622 0.0666693,0.0666693l3.14961e-005 0.0655551c0,0.0368071 -0.0298898,0.0666654 -0.066685,0.0666654z"/><path class="fil0" d="M2.06361 5.6209c-0.036811,0 -0.0666693,-0.0298583 -0.0666693,-0.0666654l4.72441e-005 -0.0655551c0,-0.0368071 0.029811,-0.0666693 0.0666142,-0.0666693 0.0368268,0 0.0666693,0.0298622 0.0666693,0.0666693l3.14961e-005 0.0655551c0,0.0368071 -0.0298898,0.0666654 -0.0666929,0.0666654z"/><path class="fil0" d="M1.40861 4.9241c-0.036811,0 -0.0666693,-0.0298622 -0.0666693,-0.0666693l4.72441e-005 -0.0656929c0,-0.0368031 0.029811,-0.0666654 0.066622,-0.0666654 0.036811,-3.93701e-006 0.0666693,0.0298622 0.0666693,0.0666654l1.5748e-005 0.0656929c0,0.0368071 -0.029874,0.0666693 -0.066685,0.0666693z"/><path class="fil0" d="M1.92431 5.96937c-0.0367559,0 -0.0666693,-0.0298622 -0.0666693,-0.0666654l3.93701e-005 -0.0655551c0,-0.0368071 0.0298268,-0.0666693 0.0666299,-0.0666693 0.0368031,0 0.0666614,0.0298622 0.0666614,0.0666693l2.3622e-005 0.0655551c0,0.0368031 -0.0298819,0.0666693 -0.066685,0.0666654z"/><path class="fil0" d="M2.20293 5.96937c-0.036811,0 -0.066685,-0.0298622 -0.066685,-0.0666654l6.29921e-005 -0.0655551c0,-0.0368071 0.029811,-0.0666693 0.0666142,-0.0666693 0.0368189,0 0.0666614,0.0298622 0.0666614,0.0666693l3.14961e-005 0.0655551c0,0.0368031 -0.0298898,0.0666693 -0.066685,0.0666654z"/><path class="fil0" d="M1.70861 4.9241c-0.036937,0 -0.0666693,-0.0298622 -0.0666693,-0.0666693l4.72441e-005 -0.0656929c0,-0.0368031 0.0296772,-0.0666654 0.0666142,-0.0666654 0.0368189,-3.93701e-006 0.0666772,0.0298622 0.0666772,0.0666654l1.5748e-005 0.0656929c0,0.0368071 -0.029874,0.0666693 -0.066685,0.0666693z"/><path class="fil0" d="M2.41861 4.9241c-0.036811,0 -0.0666693,-0.0298622 -0.0666693,-0.0666693l4.72441e-005 -0.0656929c0,-0.0368031 0.029811,-0.0666654 0.0666142,-0.0666654 0.0368189,-3.93701e-006 0.0666772,0.0298622 0.0666772,0.0666654l1.5748e-005 0.0656929c0,0.0368071 -0.0298898,0.0666693 -0.066685,0.0666693z"/><path class="fil0" d="M2.06361 4.9241c-0.036811,0 -0.0666693,-0.0298622 -0.0666693,-0.0666693l4.72441e-005 -0.0656929c0,-0.0368031 0.029811,-0.0666654 0.0666142,-0.0666654 0.0368268,-3.93701e-006 0.0666693,0.0298622 0.0666693,0.0666654l3.14961e-005 0.0656929c0,0.0368071 -0.0298898,0.0666693 -0.0666929,0.0666693z"/><path class="fil0" d="M2.06543 6.27993c-0.225118,0 -0.418898,-0.111803 -0.531394,-0.306803 -0.431913,-0.748059 -0.54889,-1.2425 -0.367787,-1.55597 0.136315,-0.236252 0.430425,-0.35111 0.899181,-0.35111 0.504063,0 0.816787,0.1425 0.929575,0.423472 0.0138031,0.0341654 -0.00291339,0.0729134 -0.0370866,0.0866654 -0.0341102,0.013748 -0.0729134,-0.00291732 -0.0866614,-0.0370827 -0.0903858,-0.225417 -0.361528,-0.33972 -0.805827,-0.33972 -0.411118,-3.93701e-006 -0.674866,0.0956929 -0.783756,0.284445 -0.152614,0.264299 -0.0323701,0.729717 0.367772,1.42264 0.0882362,0.152638 0.239717,0.240138 0.415984,0.240138 0.176252,0 0.327764,-0.0875 0.415969,-0.240138 0.0320945,-0.0555591 0.0633307,-0.111531 0.0927717,-0.166252 0.0175118,-0.0323622 0.0579213,-0.0445827 0.0902835,-0.0270827 0.0325433,0.0175 0.0445827,0.0579173 0.0270709,0.0902795 -0.0299685,0.0559685 -0.061937,0.113051 -0.0947165,0.16972 -0.112496,0.195 -0.306244,0.306803 -0.531378,0.306803z"/><path class="fil0" d="M2.69006 4.31896c-0.015189,0 -0.0303307,-0.00499606 -0.0428346,-0.0155512 -0.0281654,-0.0236142 -0.031937,-0.0656969 -0.00833071,-0.0938898 0.0427874,-0.0511142 0.173339,-0.228059 0.150693,-0.460976 -0.266528,-0.0261102 -0.419866,0.155421 -0.421528,0.157362 -0.0185669,0.0226417 -0.0498583,0.0304173 -0.0769449,0.0191693 -0.0270551,-0.0111142 -0.0436063,-0.038752 -0.0408346,-0.0679173 0.000834646,-0.0100039 0.0183386,-0.241248 -0.186669,-0.409307 -0.204992,0.168055 -0.187504,0.399307 -0.186661,0.409583 0.00254331,0.0290276 -0.0141654,0.0566693 -0.0411102,0.0676417 -0.0270315,0.0111063 -0.0581969,0.00347244 -0.0766772,-0.0191693 -0.00648031,-0.0076378 -0.157764,-0.183469 -0.421378,-0.157362 -0.0227244,0.232638 0.107488,0.409583 0.150276,0.460697 0.023622,0.0281929 0.0198661,0.0702756 -0.00833858,0.0938898 -0.0281654,0.0236102 -0.0702756,0.0198622 -0.0938819,-0.00833465 -0.0549685,-0.0656929 -0.23,-0.304445 -0.172646,-0.61722 0.00505512,-0.0272205 0.026252,-0.0486102 0.0534724,-0.0536142 0.221583,-0.0405551 0.387228,0.0333346 0.486945,0.102087 0.0219449,-0.119031 0.086811,-0.288614 0.272087,-0.416528 0.0228031,-0.0156969 0.0529134,-0.0156969 0.0758268,0.000137795 0.185346,0.127776 0.25015,0.297358 0.272094,0.41639 0.099748,-0.068752 0.265417,-0.142642 0.486945,-0.102087 0.0272441,0.005 0.0484724,0.0263937 0.0536063,0.0536142 0.0573858,0.313055 -0.117921,0.551945 -0.173055,0.617638 -0.0131811,0.0156929 -0.0320787,0.023748 -0.0510551,0.023748z"/></g></g><text x="0" y="21.82666" fill="#000000" font-size="5px" font-weight="bold" font-family="'Helvetica Neue', Helvetica, Arial-Unicode, Arial, Sans-serif">Created by Maan Icons</text><text x="0" y="26.82666" fill="#000000" font-size="5px" font-weight="bold" font-family="'Helvetica Neue', Helvetica, Arial-Unicode, Arial, Sans-serif">from the Noun Project</text></svg>